<svg xmlns="http://www.w3.org/2000/svg" version="1.1" xmlns:xlink="http://www.w3.org/1999/xlink" xmlns:svgjs="http://svgjs.dev/svgjs" width="1000" height="623" viewBox="0 0 1000 623"><g transform="matrix(1,0,0,1,-0.6060606060606233,0.2522267206477409)"><svg viewBox="0 0 396 247" data-background-color="#ffffff" preserveAspectRatio="xMidYMid meet" height="623" width="1000" xmlns="http://www.w3.org/2000/svg" xmlns:xlink="http://www.w3.org/1999/xlink"><g id="tight-bounds" transform="matrix(1,0,0,1,0.2400000000000091,-0.09999999999999432)"><svg viewBox="0 0 395.52 247.2" height="247.2" width="395.52"><g><svg></svg></g><g><svg viewBox="0 0 395.52 247.2" height="247.2" width="395.52"><g transform="matrix(1,0,0,1,75.54432,58.3746332618683)"><svg viewBox="0 0 244.43135999999998 130.4507334762634" height="130.4507334762634" width="244.43135999999998"><g><svg viewBox="0 0 244.43135999999998 130.4507334762634" height="130.4507334762634" width="244.43135999999998"><g><svg viewBox="0 0 244.43135999999998 130.4507334762634" height="130.4507334762634" width="244.43135999999998"><g><svg viewBox="0 0 244.43135999999998 130.4507334762634" height="130.4507334762634" width="244.43135999999998"><g><svg viewBox="0 0 244.43135999999998 130.4507334762634" height="130.4507334762634" width="244.43135999999998"><g><svg viewBox="0 0 244.43135999999998 130.4507334762634" height="130.4507334762634" width="244.43135999999998"><g transform="matrix(1,0,0,1,0,0)"><svg width="244.43135999999998" viewBox="3.8499999046325684 -34.849998474121094 65.30000305175781 34.849998474121094" height="130.4507334762634" data-palette-color="#08c8a5"><path d="M28.7 0L22.75 0 8.4-15.9 8.4 0 3.85 0 3.85-34.85 8.4-34.85 8.4-18.7 22.8-34.85 28.55-34.85 12.75-17.4 28.7 0ZM64.3-34.6L69.15-34.6 69.15 0 64.6 0 64.6-25.8 53.1 0 49.9 0 38.35-25.85 38.35 0 33.8 0 33.8-34.6 38.7-34.6 51.5-6 64.3-34.6Z" opacity="1" transform="matrix(1,0,0,1,0,0)" fill="#08c8a5" class="undefined-text-0" data-fill-palette-color="primary" id="text-0"></path></svg></g></svg></g></svg></g></svg></g></svg></g></svg></g></svg></g><path d="M245.66 52.375L245.66 6.359 11.177 6.359 11.177 240.841 245.66 240.841 245.66 194.825 233.896 194.825 233.896 229.077 22.942 229.077 22.942 18.123 233.896 18.123 233.896 52.375Z" fill="#08c8a5" stroke="transparent" data-fill-palette-color="primary"></path></svg></g><defs></defs></svg><rect width="395.52" height="247.2" fill="none" stroke="none" visibility="hidden"></rect></g></svg></g></svg>